<?xml version="1.0" standalone="no"?>
<!DOCTYPE svg PUBLIC "-//W3C//DTD SVG 20010904//EN"
 "http://www.w3.org/TR/2001/REC-SVG-20010904/DTD/svg10.dtd">
<svg version="1.0" xmlns="http://www.w3.org/2000/svg"
 width="718.814216pt" height="934.104631pt" viewBox="0 0 718.814216 934.104631"
 preserveAspectRatio="xMidYMid meet">
<metadata>
Created by potrace 1.12, written by Peter Selinger 2001-2015
</metadata>
<g transform="translate(-144.185784,981.000000) scale(0.100000,-0.100000)"
fill="#000000" stroke="none">
<path d="M4945 9758 c-8 -28 -29 -117 -47 -197 -18 -80 -32 -147 -33 -148 0
-2 -269 -32 -271 -30 0 1 -25 58 -54 127 -29 69 -64 150 -77 181 l-25 57 -41
-6 c-53 -6 -307 -69 -315 -77 -3 -3 3 -81 13 -173 30 -258 40 -226 -95 -288
l-115 -53 -55 57 c-30 31 -94 100 -141 152 -101 110 -68 111 -261 -10 -106
-66 -123 -81 -120 -101 1 -13 34 -94 72 -182 39 -87 70 -162 70 -166 0 -5 -43
-44 -96 -87 -66 -54 -104 -78 -120 -77 -12 1 -67 30 -121 64 -189 119 -192
121 -213 114 -28 -9 -230 -225 -230 -246 0 -10 26 -53 58 -96 32 -43 84 -113
116 -156 l57 -78 -76 -114 -75 -114 -43 15 c-92 33 -288 84 -321 84 -40 0 -36
6 -123 -175 -29 -60 -52 -117 -52 -125 0 -8 54 -53 120 -100 67 -46 136 -98
154 -115 l34 -30 -41 -122 -41 -123 -186 0 c-135 0 -192 -4 -203 -12 -17 -13
-51 -165 -64 -280 l-7 -58 49 -21 c27 -12 107 -40 179 -63 l129 -43 -3 -139
c-1 -76 -4 -141 -6 -142 -2 -2 -79 -26 -172 -54 -92 -27 -176 -52 -185 -55 -9
-3 -19 -12 -22 -20 -8 -19 14 -303 25 -324 6 -12 45 -18 201 -28 106 -7 195
-15 197 -17 2 -2 15 -52 28 -111 13 -60 26 -115 28 -124 4 -13 -34 -41 -160
-119 -106 -66 -165 -108 -165 -118 0 -20 86 -280 100 -302 8 -12 32 -10 177
15 92 16 182 30 198 33 29 4 33 0 93 -109 34 -62 61 -118 59 -123 -3 -6 -61
-75 -131 -153 -69 -78 -126 -146 -126 -152 0 -14 180 -262 195 -268 15 -5 102
37 243 120 l104 60 100 -100 100 -100 -20 -40 c-12 -22 -55 -98 -96 -169 -42
-70 -76 -134 -76 -141 0 -7 8 -17 18 -22 9 -5 69 -50 132 -100 63 -50 120 -91
127 -91 7 0 78 59 158 131 80 72 149 129 153 127 4 -2 56 -32 115 -68 90 -54
107 -68 102 -85 -31 -113 -85 -369 -78 -376 4 -4 48 -24 98 -44 49 -21 113
-48 142 -61 28 -13 55 -24 60 -24 9 0 51 63 158 233 37 59 70 107 74 107 17 0
217 -62 224 -69 9 -9 28 -370 20 -384 -2 -4 6 -11 19 -16 33 -12 322 -46 339
-39 10 4 32 72 64 198 l48 192 124 -4 c68 -3 126 -8 130 -11 3 -4 27 -89 52
-189 l47 -183 80 2 c80 3 235 20 267 29 15 5 17 21 17 148 0 79 3 170 6 202
l6 60 122 31 c66 17 124 29 128 27 4 -3 48 -74 98 -159 50 -84 97 -158 104
-164 15 -13 38 -6 204 64 l112 47 0 37 c0 20 -17 111 -38 203 l-38 167 75 44
c42 25 92 54 112 66 l35 21 135 -126 c74 -69 141 -130 150 -134 11 -7 48 15
140 84 68 51 130 100 138 109 12 15 1 38 -84 192 l-98 176 84 87 c46 48 90 93
96 100 11 11 42 -3 179 -78 103 -56 172 -89 183 -85 18 6 189 228 202 263 6
16 -18 49 -122 166 l-130 146 63 115 c43 78 69 115 80 115 10 0 75 -11 145
-25 71 -13 151 -27 179 -31 59 -7 46 -26 118 175 l45 124 -33 31 c-18 17 -92
67 -165 110 -122 74 -132 82 -128 105 3 14 15 74 28 132 l23 107 76 6 c41 3
127 9 192 12 64 4 121 10 127 13 14 9 38 338 25 351 -8 8 -83 31 -320 96 l-52
15 -7 135 c-4 75 -3 140 1 144 5 5 65 28 134 51 147 49 205 73 214 88 9 13
-42 312 -56 328 -8 10 -59 13 -208 13 l-197 0 -40 123 c-22 67 -39 125 -37
129 3 4 72 55 155 113 83 59 153 114 156 122 4 9 -24 77 -65 159 -86 172 -64
164 -287 103 -83 -23 -159 -42 -169 -43 -14 -1 -40 30 -92 107 l-74 108 115
152 c63 84 115 161 115 172 0 24 -198 248 -223 253 -10 2 -89 -42 -177 -97
-87 -56 -162 -101 -165 -101 -11 0 -200 164 -203 176 -2 7 10 42 26 77 56 119
114 276 109 290 -7 18 -90 73 -204 135 l-92 50 -93 -97 c-51 -53 -115 -120
-142 -149 l-48 -54 -112 52 c-61 29 -112 54 -114 55 -2 2 4 92 13 201 15 180
15 199 1 210 -17 12 -260 72 -310 76 -29 3 -31 1 -110 -180 l-81 -183 -60 6
c-111 11 -215 28 -215 36 0 17 -52 307 -62 347 l-10 42 -169 0 -168 0 -16 -52z
m278 -62 c3 -8 15 -84 27 -168 31 -228 29 -218 48 -218 29 0 284 -30 341 -40
33 -6 58 -6 65 -1 6 5 45 89 86 186 l75 176 35 -5 c19 -3 59 -13 89 -22 l54
-16 -6 -146 c-4 -81 -10 -170 -13 -198 l-7 -52 167 -80 c212 -103 202 -100
229 -65 46 59 238 273 245 273 4 0 41 -19 82 -43 65 -37 75 -46 73 -69 -1 -14
-33 -97 -72 -185 -39 -87 -71 -162 -71 -165 0 -3 18 -17 40 -32 21 -14 91 -71
154 -126 63 -55 122 -100 131 -100 9 0 87 45 175 100 87 55 160 100 162 100 2
0 30 -31 61 -70 l57 -69 -115 -152 c-63 -84 -115 -155 -115 -160 0 -8 205
-317 224 -337 9 -9 20 -10 42 -3 16 5 92 28 169 51 77 22 148 43 157 46 13 4
27 -13 57 -68 23 -40 41 -78 41 -84 0 -11 -55 -53 -247 -193 -40 -29 -73 -54
-73 -55 0 -1 14 -40 31 -87 17 -46 47 -133 66 -193 l35 -109 198 5 198 5 10
-56 c6 -31 14 -74 17 -97 l6 -41 -138 -47 c-190 -66 -228 -82 -226 -94 2 -6 6
-101 9 -211 l7 -200 76 -20 c42 -12 128 -33 192 -47 l116 -27 -5 -96 c-2 -53
-6 -98 -8 -100 -2 -3 -86 -9 -187 -14 -112 -5 -186 -13 -193 -21 -6 -6 -32
-96 -58 -200 -38 -154 -44 -192 -34 -201 7 -6 81 -52 163 -100 83 -49 152 -90
154 -92 2 -1 -9 -41 -25 -89 l-29 -86 -47 6 c-25 4 -107 20 -182 36 -75 17
-140 30 -145 30 -4 0 -34 -48 -66 -107 -32 -60 -76 -138 -97 -175 -21 -36 -38
-72 -38 -78 0 -6 44 -60 99 -118 54 -59 113 -124 130 -144 l32 -37 -55 -70
c-31 -38 -60 -72 -64 -75 -5 -3 -81 36 -170 85 l-163 90 -27 -20 c-15 -11 -85
-78 -156 -149 l-128 -129 96 -168 c53 -93 96 -173 95 -179 0 -12 -123 -106
-138 -106 -6 0 -73 56 -151 125 -78 69 -144 125 -148 125 -4 0 -43 -23 -87
-50 -44 -27 -117 -70 -162 -96 -46 -25 -85 -49 -87 -53 -3 -4 13 -88 34 -185
22 -98 40 -185 40 -195 0 -12 -22 -25 -72 -45 -40 -16 -78 -30 -85 -33 -6 -3
-22 15 -34 39 -54 107 -172 288 -187 288 -9 0 -71 -15 -137 -34 -66 -19 -145
-42 -177 -50 -67 -19 -64 -8 -74 -249 -4 -104 -10 -160 -18 -162 -6 -2 -47 -6
-92 -9 l-80 -6 -13 52 c-30 117 -94 313 -104 320 -7 4 -94 8 -195 8 l-182 0
-11 -27 c-6 -16 -31 -100 -56 -188 -25 -88 -47 -162 -49 -164 -3 -3 -177 18
-181 23 -1 1 -7 87 -12 190 -6 104 -12 190 -14 193 -10 9 -362 110 -372 106
-12 -5 -71 -93 -151 -225 -37 -62 -64 -98 -75 -98 -22 0 -149 57 -149 67 0 4
18 90 40 191 23 100 38 187 35 192 -3 5 -31 23 -63 41 -31 18 -106 61 -165 96
-59 36 -113 63 -120 60 -7 -2 -74 -59 -149 -126 -76 -66 -141 -121 -144 -121
-4 0 -38 23 -75 52 -66 50 -68 52 -54 77 7 14 50 91 94 170 l80 144 -146 153
c-120 126 -151 153 -167 148 -12 -3 -88 -43 -170 -88 -82 -44 -152 -82 -156
-84 -3 -1 -29 31 -58 71 l-51 74 129 142 c72 78 130 148 130 155 0 8 -20 50
-45 94 -24 44 -62 116 -84 159 -64 126 -40 118 -236 78 -93 -20 -181 -34 -194
-33 -21 3 -28 14 -51 85 -29 90 -30 88 30 118 106 53 270 159 270 174 0 18
-75 347 -86 374 -8 21 -33 25 -226 35 -87 4 -160 10 -162 13 -3 3 -8 48 -12
100 l-7 94 144 34 c79 19 165 40 192 48 l47 14 1 117 c0 64 4 155 8 202 5 47
6 90 4 97 -5 11 -51 30 -248 98 -55 18 -101 38 -103 44 -4 11 25 169 34 182 3
6 80 7 198 3 l192 -7 28 99 c16 54 44 140 62 192 19 51 32 97 29 102 -3 4 -64
51 -137 103 -73 53 -141 102 -152 110 -18 13 -17 17 24 95 33 64 47 82 64 82
12 0 85 -20 163 -44 216 -67 188 -70 258 30 33 47 86 123 117 167 54 76 57 83
43 102 -9 11 -23 31 -33 45 -9 14 -56 77 -105 141 -48 64 -87 120 -87 125 0 5
29 39 65 74 56 55 68 63 83 53 75 -51 312 -193 321 -193 6 0 58 39 115 88 56
48 124 104 149 125 26 21 47 44 47 52 0 8 -34 91 -75 185 -41 94 -75 175 -75
180 0 5 34 29 76 54 l77 44 52 -57 c29 -31 85 -94 125 -141 40 -47 78 -91 85
-99 11 -11 29 -6 111 32 55 24 133 59 175 76 120 50 112 27 87 242 -11 103
-19 193 -16 201 5 12 185 57 191 47 2 -2 34 -83 73 -179 l71 -175 44 1 c70 0
373 34 380 42 4 4 24 94 44 200 l37 192 93 0 c71 0 94 -3 98 -14z"/>
<path d="M4820 9049 c-41 -5 -111 -16 -155 -25 -582 -114 -1055 -395 -1408
-834 -285 -354 -442 -705 -518 -1156 -18 -106 -22 -171 -23 -369 -1 -155 4
-272 12 -330 75 -500 257 -914 554 -1260 386 -450 862 -719 1465 -827 173 -31
543 -33 728 -4 497 76 930 288 1290 628 401 380 660 881 752 1459 25 157 24
489 -1 644 -25 159 -52 274 -92 404 -244 784 -863 1379 -1659 1596 -239 65
-321 76 -605 80 -146 2 -299 0 -340 -6z m587 -104 c541 -71 1007 -303 1379
-687 362 -375 570 -817 634 -1353 14 -116 14 -420 0 -516 -21 -140 -50 -284
-77 -374 -158 -545 -523 -1041 -978 -1331 -572 -364 -1286 -462 -1915 -262
-512 163 -914 452 -1217 876 -416 582 -537 1401 -307 2089 164 492 513 942
938 1210 312 197 690 325 1051 356 116 10 385 6 492 -8z"/>
<path d="M4930 8524 c-14 -3 -70 -12 -125 -20 -235 -38 -514 -143 -700 -264
-129 -85 -224 -161 -328 -264 -388 -384 -592 -959 -536 -1507 32 -324 139
-617 322 -889 300 -446 786 -742 1336 -816 582 -77 1200 157 1609 609 83 92
221 288 282 402 177 329 253 742 205 1107 -31 232 -91 423 -201 638 -90 174
-178 294 -324 441 -230 232 -449 369 -749 469 -216 73 -327 91 -561 95 -113 2
-216 1 -230 -1z m370 -104 c239 -30 426 -86 635 -190 170 -85 298 -175 427
-298 102 -99 230 -256 291 -358 104 -173 190 -401 228 -600 33 -175 33 -470 0
-634 -152 -749 -695 -1302 -1431 -1457 -111 -24 -147 -27 -325 -27 -214 0
-303 11 -478 60 -288 81 -564 243 -782 458 -303 301 -485 697 -526 1143 -34
379 79 810 301 1141 117 176 349 393 545 511 322 194 766 294 1115 251z"/>
<path d="M4935 8114 c-348 -53 -634 -200 -875 -450 -196 -203 -334 -471 -386
-749 -28 -147 -26 -402 4 -550 57 -287 182 -531 372 -729 358 -373 841 -531
1333 -436 640 124 1113 624 1198 1267 33 251 -24 589 -137 820 -207 419 -584
707 -1054 803 -102 21 -378 35 -455 24z m434 -124 c511 -104 897 -442 1049
-920 51 -161 66 -257 66 -435 -1 -228 -35 -382 -130 -584 -185 -393 -562 -677
-1008 -758 -138 -26 -382 -22 -510 7 -233 52 -414 139 -596 285 -412 332 -592
948 -428 1464 93 293 301 575 542 736 174 116 387 196 598 224 103 14 300 5
417 -19z"/>
<path d="M4939 7605 c-366 -69 -664 -347 -756 -704 -74 -287 -20 -597 142
-826 64 -90 209 -223 300 -274 261 -149 574 -171 854 -60 120 47 213 111 321
219 174 174 252 326 285 557 28 189 -1 366 -91 548 -129 265 -352 449 -629
521 -126 32 -312 41 -426 19z m431 -120 c345 -109 579 -393 620 -750 20 -174
-25 -377 -119 -535 -113 -189 -317 -342 -537 -401 -119 -32 -338 -32 -451 0
-307 86 -544 340 -614 656 -22 97 -16 314 10 410 77 286 276 509 541 605 115
42 165 49 325 46 118 -3 153 -8 225 -31z"/>
<path d="M4963 7205 c-113 -31 -239 -115 -308 -207 -58 -77 -67 -95 -94 -183
-27 -86 -30 -231 -6 -319 53 -202 228 -364 442 -412 301 -67 614 127 689 426
23 91 15 241 -18 331 -85 230 -305 380 -557 378 -53 0 -120 -7 -148 -14z m329
-114 c121 -47 233 -160 279 -279 30 -80 37 -210 14 -287 -24 -85 -50 -131
-109 -193 -70 -74 -120 -107 -212 -138 -70 -23 -90 -26 -176 -22 -85 4 -105 9
-172 41 -135 64 -237 185 -264 312 -22 102 -24 152 -8 217 44 172 155 297 315
355 57 21 80 23 171 20 78 -3 120 -9 162 -26z"/>
<path d="M3678 3091 c-66 -26 -101 -54 -137 -109 -59 -92 -76 -244 -41 -364
15 -52 69 -128 109 -155 117 -79 303 -67 395 23 27 27 76 116 76 139 0 9 -36
11 -121 6 -19 -1 -30 -10 -42 -37 -13 -26 -30 -41 -64 -56 -42 -19 -53 -20
-93 -9 -93 25 -135 101 -135 241 0 72 4 94 25 135 33 66 97 101 165 91 51 -8
97 -42 115 -86 12 -28 15 -30 69 -30 79 0 86 7 70 61 -19 63 -92 133 -160 153
-70 21 -172 20 -231 -3z"/>
<path d="M4210 2760 l0 -340 225 0 225 0 0 60 0 60 -155 0 -155 0 -6 24 c-3
14 -4 140 -2 280 l3 256 -67 0 -68 0 0 -340z"/>
<path d="M4790 2760 l0 -340 235 0 235 0 0 60 0 60 -165 0 -165 0 0 85 0 84
153 3 152 3 1 53 1 52 -153 0 -154 0 0 80 0 80 160 0 160 0 0 60 0 60 -230 0
-230 0 0 -340z"/>
<path d="M5609 3073 c-23 -57 -219 -635 -219 -644 0 -6 30 -9 72 -7 l71 3 25
73 24 73 126 -3 125 -3 25 -72 24 -73 73 0 73 0 -32 88 c-18 48 -72 201 -121
340 l-88 252 -84 0 c-82 0 -84 -1 -94 -27z m131 -225 c51 -177 56 -158 -43
-158 l-85 0 13 43 c8 23 25 78 39 121 14 43 26 85 26 92 0 8 4 14 8 14 5 0 24
-51 42 -112z"/>
<path d="M6140 2760 l0 -340 70 0 70 0 0 238 0 237 86 -145 c47 -80 109 -187
137 -237 l52 -93 78 0 77 0 0 340 0 340 -65 0 -65 0 -2 -242 -3 -243 -46 80
c-26 44 -89 153 -140 242 l-94 163 -77 0 -78 0 0 -340z"/>
<path d="M2970 2121 c-79 -16 -154 -81 -191 -166 -31 -70 -38 -213 -15 -298
43 -157 166 -240 329 -223 93 9 161 55 201 135 47 92 47 91 -32 91 -68 0 -70
-1 -82 -31 -30 -72 -124 -104 -198 -65 -117 61 -136 315 -30 413 72 67 167 52
221 -34 l24 -38 62 3 c38 2 61 8 61 15 0 7 -13 37 -28 67 -56 111 -177 160
-322 131z"/>
<path d="M5757 2120 c-89 -23 -154 -81 -189 -169 -32 -82 -32 -251 1 -334 46
-116 130 -176 258 -185 131 -8 233 50 284 162 29 64 28 66 -55 66 -68 0 -74
-2 -80 -23 -8 -35 -61 -79 -103 -86 -140 -26 -225 129 -182 329 15 71 55 115
119 130 43 10 54 10 87 -7 33 -16 74 -62 85 -94 2 -6 26 -7 65 -2 l62 8 -24
59 c-28 70 -54 99 -111 126 -49 24 -160 34 -217 20z"/>
<path d="M1665 2108 c-14 -38 -177 -524 -198 -591 l-25 -78 71 3 71 3 22 70
22 70 119 3 120 3 24 -76 23 -75 74 0 c67 0 73 2 67 18 -5 9 -39 107 -77 217
-38 110 -88 254 -111 320 l-42 120 -78 3 c-56 2 -79 -1 -82 -10z m124 -277
l39 -121 -79 0 c-44 0 -79 1 -79 3 0 1 16 56 35 121 19 66 35 122 35 124 0 19
16 -22 49 -127z"/>
<path d="M2150 1781 l0 -341 70 0 70 0 0 134 0 134 62 -2 62 -1 65 -130 66
-130 73 -3 73 -3 -73 144 -74 144 37 31 c20 17 44 46 53 65 32 70 12 193 -40
239 -46 41 -94 51 -271 56 l-173 5 0 -342z m242 229 c64 0 72 -2 99 -29 21
-22 29 -39 29 -66 0 -76 -44 -105 -160 -105 l-70 0 0 106 c0 93 2 105 16 100
9 -3 47 -6 86 -6z"/>
<path d="M3437 2114 c-4 -4 -7 -157 -7 -341 l0 -333 73 0 72 0 0 142 0 143
138 3 137 3 0 -146 0 -145 65 0 65 0 0 330 c0 182 1 333 3 338 1 4 -28 8 -65
10 l-68 3 0 -141 0 -141 -137 3 -138 3 -1 135 0 135 -65 3 c-36 2 -68 0 -72
-4z"/>
<path d="M4130 1781 l0 -341 65 0 65 0 0 338 0 339 -65 2 -65 2 0 -340z"/>
<path d="M4380 2055 l0 -65 90 0 90 0 0 -275 0 -275 65 0 65 0 0 275 0 274 93
3 92 3 0 60 0 60 -247 2 -248 2 0 -64z"/>
<path d="M4980 1780 l0 -340 235 0 235 0 0 60 0 60 -165 0 -165 0 0 85 0 85
150 0 150 0 0 55 0 55 -150 0 -150 0 0 75 0 74 158 3 157 3 0 60 0 60 -227 3
-228 2 0 -340z"/>
<path d="M6199 2116 c-2 -2 -2 -32 -1 -65 l4 -61 94 0 94 0 0 -275 0 -275 70
0 70 0 0 275 0 275 90 0 90 0 0 64 0 65 -253 1 c-139 0 -255 -2 -258 -4z"/>
<path d="M6830 1865 c0 -279 2 -291 64 -358 93 -100 317 -101 411 -3 60 62 65
89 65 370 l0 246 -65 0 -65 0 0 -232 c0 -202 -2 -238 -18 -267 -48 -96 -172
-105 -236 -18 -20 27 -21 44 -24 273 l-3 244 -65 0 -64 0 0 -255z"/>
<path d="M7520 1780 l0 -340 70 0 70 0 0 141 c0 125 2 140 16 135 9 -3 35 -6
58 -6 l42 0 65 -134 64 -135 73 0 c39 -1 72 1 72 4 0 3 -30 65 -67 137 -38 73
-69 135 -71 139 -1 3 15 18 37 33 51 35 71 80 72 155 1 75 -22 125 -78 164
-48 35 -124 46 -300 47 l-123 0 0 -340z m351 201 c30 -37 25 -96 -10 -132 -28
-28 -34 -29 -115 -29 l-86 0 0 96 0 96 96 -4 c86 -3 98 -5 115 -27z"/>
<path d="M8177 2113 c-4 -3 -7 -156 -7 -340 l0 -333 230 0 230 0 0 60 0 60
-160 0 -160 0 0 85 0 85 145 0 145 0 0 55 0 55 -145 0 -145 0 0 75 0 75 150 0
150 0 0 65 0 65 -213 0 c-118 0 -217 -3 -220 -7z"/>
<path d="M2660 1085 l0 -54 93 -3 92 -3 3 -278 2 -278 65 2 65 2 0 279 0 278
90 0 90 0 0 55 0 55 -250 0 -250 0 0 -55z"/>
<path d="M3270 805 l0 -335 230 0 230 0 0 60 0 60 -160 0 -160 0 0 85 0 85
145 0 145 0 0 55 0 55 -145 0 -146 0 3 78 3 77 155 2 c142 2 155 4 154 20 -1
10 -2 35 -2 56 l-2 37 -225 0 -225 0 0 -335z"/>
<path d="M3850 805 l0 -335 65 0 65 0 2 258 3 257 28 -85 c15 -47 52 -161 81
-255 l54 -170 53 0 53 0 85 259 86 259 3 -260 2 -260 60 -2 60 -2 0 336 0 336
-97 -3 -98 -3 -75 -232 c-41 -128 -77 -233 -80 -233 -3 0 -19 48 -36 108 -17
59 -49 164 -70 234 l-39 128 -102 0 -103 0 0 -335z"/>
<path d="M4700 805 l0 -335 70 0 70 0 0 125 0 125 83 0 c134 0 196 29 237 111
24 45 27 143 6 192 -17 43 -76 93 -123 106 -21 6 -107 11 -190 11 l-153 0 0
-335z m282 225 c45 -13 68 -43 68 -87 0 -78 -44 -113 -144 -113 l-66 0 0 105
0 105 53 0 c28 0 69 -5 89 -10z"/>
<path d="M5290 805 l0 -335 220 0 220 0 0 66 0 65 -150 -3 -150 -3 0 273 0
272 -70 0 -70 0 0 -335z"/>
<path d="M6035 1128 c-19 -51 -215 -642 -215 -649 0 -5 31 -9 70 -9 l70 0 22
75 23 75 130 0 131 0 22 -75 22 -75 70 0 c39 0 70 2 70 4 0 2 -45 131 -99 287
-54 156 -106 304 -114 329 l-15 45 -91 3 c-67 2 -93 -1 -96 -10z m138 -245
c21 -65 37 -124 37 -130 0 -9 -23 -13 -81 -13 -73 0 -81 2 -77 18 25 91 74
242 79 242 3 0 22 -53 42 -117z"/>
<path d="M6412 1084 l3 -56 90 -2 90 -1 3 -277 2 -278 70 0 70 0 0 281 0 280
98 -2 c53 -1 96 1 95 5 -2 3 -3 29 -3 56 l0 50 -260 0 -261 0 3 -56z"/>
<path d="M7050 805 l0 -335 225 0 225 0 0 60 0 60 -155 0 -155 0 0 85 0 85
145 0 145 0 0 55 0 55 -145 0 -145 0 0 75 c0 69 2 75 23 80 12 3 31 5 42 4 11
-1 68 -1 128 -1 l107 2 0 55 0 55 -220 0 -220 0 0 -335z"/>
</g>
</svg>
